<?xml version="1.0" encoding="utf-8"?>
<!-- Generator: Adobe Illustrator 18.0.0, SVG Export Plug-In . SVG Version: 6.00 Build 0)  -->
<!DOCTYPE svg PUBLIC "-//W3C//DTD SVG 1.1//EN" "http://www.w3.org/Graphics/SVG/1.1/DTD/svg11.dtd">
<svg version="1.1" id="Layer_1" xmlns="http://www.w3.org/2000/svg" xmlns:xlink="http://www.w3.org/1999/xlink" x="0px" y="0px"
	 viewBox="0 0 800 800" enable-background="new 0 0 800 800" xml:space="preserve">
<g>
	<polygon fill="#FBF8F2" points="9,638.4 417.9,394.7 794,445.5 409.1,732.8 	"/>
	
		<polygon fill="none" stroke="#C1272D" stroke-width="2.6611" stroke-linecap="round" stroke-linejoin="round" stroke-miterlimit="10" points="
		53.9,630.2 416.5,414 750.2,459 408.7,713.8 	"/>
	
		<ellipse transform="matrix(0.9826 -0.1856 0.1856 0.9826 -115.4779 80.5929)" fill="#C1272D" cx="372.8" cy="657.2" rx="58.7" ry="24.7"/>
	<polygon fill="#C1272D" points="331.4,676.7 186.2,755.3 261.3,738.2 283.2,757.5 364.8,678 	"/>
</g>
<g>
	<path opacity="5.000000e-02" d="M572.4,445.3c-0.8,0.6-1.7,1.2-2.6,1.9c0.4-7.6,0.4-15.4-0.1-23.4c6-33.2-7.6-94.6-20.2-120
		c3.7-2.1,7.4-4.6,10.8-7.3c0-6.6-29.3-34.8-50.5-36.7c0-0.3,0.1-0.5,0.1-0.8c2.9-1.6,5-6.1,5-10.7
		c-66.2-64.7-140.4-64.1-166.6-44.8c0-5.7-3-10.3-6.8-10.3c-45.7,0-82.7,39.7-82.7,88.7c-16.8-15-29.5,14.6-5.6,17.1
		c-19.2,6.8-34.2,85.6-23.8,131.7c-0.1,5.2-0.1,10.4,0.2,15.4c-0.4-0.3-0.8-0.6-1.2-0.8c-39.8-27.4-88.2,32.2-58.3,72.3
		c7.2,7.7,19.9,12.5,33.5,15.3c0.1,0,0.1,0,0.2,0c0.1,0,0.3,0.1,0.4,0.1c19.7,4.3,41.9,3.8,51.1,1.5l0.1-0.2
		c32.3,55.9,89.7,90.8,144.2,90.8c54.8,0,112.7-35.4,144.9-91.8l0.3,0.8c0.1,0,0.1,0,0.2,0l0.1,0.4c8.8,2.2,29.7,2.7,48.8-1
		c14.8-2.6,28.9-7.6,36.7-15.9C660.6,477.4,612.1,417.9,572.4,445.3z"/>
	<g>
		<g>
			<path fill="#FFCAB3" d="M544.8,517.8l-13.9-43.2l0.6-0.4c13.4-20.7,30.1-37.7,40.8-45.1c39.8-27.4,88.2,32.2,58.3,72.3
				C612.6,520.6,560.5,521.8,544.8,517.8"/>
			<path fill="#FCC2AE" d="M545.1,518.3l-13.1-40.7l0.6-0.4c12.6-19.5,28.3-35.5,38.4-42.5c37.4-25.8,83.1,30.3,54.9,68.1
				C609,520.9,560,522,545.1,518.3"/>
			<path fill="#F9B5A2" d="M614.5,464.3c-22-39-51.7-24.7-59.1,10.6c18.6-12.4,34.2,17,14.6,25.6
				C595.1,513.6,628.9,505.3,614.5,464.3z"/>
			<path fill="#FFCAB3" d="M256,517.8l13.9-43.2l-0.6-0.4c-13.4-20.7-30.1-37.7-40.8-45.1c-39.8-27.4-88.2,32.2-58.3,72.3
				C188.2,520.6,240.3,521.8,256,517.8"/>
			<path fill="#FCC2AE" d="M255.4,518.3l13-40.7l-0.6-0.4c-12.6-19.5-28.3-35.5-38.4-42.5c-37.4-25.8-83.1,30.3-54.9,68.1
				C191.5,520.9,240.5,522,255.4,518.3"/>
			<path fill="#F9B5A2" d="M186.3,464.3c22-39,51.7-24.7,59.1,10.6c-18.6-12.4-34.2,17-14.6,25.6
				C205.7,513.6,171.9,505.3,186.3,464.3z"/>
		</g>
		<path fill="#42210B" d="M565.8,378.5c26,131.1-74.4,230.3-166.2,230.3c-91.8,0-191.9-99.1-166.3-230.3
			c25.4-130.1,71-164.4,162.8-164.4C488,214.2,539.6,246.6,565.8,378.5z"/>
		<path fill="#FCC1AC" d="M556.3,369.1c24.5,123.5-70.1,217.1-156.6,217.1c-86.5,0-180.8-93.4-156.7-217.1
			c23.9-122.6,66.9-154.9,153.4-154.9C482.9,214.2,531.6,244.7,556.3,369.1z"/>
		<path fill="#FFCAB3" d="M551,363.9c23.7,119.4-67.7,209.8-151.4,209.8c-83.6,0-174.8-90.3-151.5-209.8
			c23.1-118.5,64.6-149.7,148.3-149.7C480.1,214.2,527.2,243.7,551,363.9z"/>
		<path fill="#F9B5A2" d="M374.6,437.7c12.3-12.9,31.9-20.6,52.9-1.4C419.6,410.4,386.5,410.4,374.6,437.7z"/>
		<path fill="#FCC1AC" d="M543.1,294c3.6-2-11.7-15.9-8.3-18.6c0-6.6-11.4-23.7-31.8-23.7c3.9,0,7-5.4,7-10.9
			c-63.4-62-134.5-61.4-159.6-42.9c0-5.5-2.9-9.9-6.5-9.9c-43.8,0-79.2,38-79.2,85c-16.1-14.4,11.7-3.1-5.4,16.4
			c-22.9,8.1-39.7,123.3-10.8,151.5c16.1-25.2-6.6-63.9,12.2-70.7c8.5,0,18.2-12,18.2-20.5c-15.4,0-26-12.4-16.9-21.8
			c8.1,17,25.2,15.7,32.5,2.6c-20.1-13.1-12.8-33.7-12.8-33.7c6.8,12.5,76,31.9,150.4,11.5c-5.8-15.4-35.4-18.7-35.4-18.7
			c6.1,0,68.2,25.8,120.4,14.1c1.4,4.7,2.2,8.3,1.8,8.6c0.5,7.1-1.1,18.7-14,27.1c7.3,13,24.4,14.3,32.5-2.6
			c9.1,9.3,12.4,49.2-9.7,44.1c0,8.5,8.1,20.9,16.6,20.9c18.8,6.8-4.5,27.6-4.5,27.6C580.6,440.3,560.8,329.7,543.1,294z"/>
		<path fill="#42210B" d="M549.4,287.6c3.7-2.1,7.4-4.5,10.8-7.3c0-6.9-31.4-36.9-52.7-36.9c4.1,0,7.4-5.7,7.4-11.4
			c-66.2-64.7-140.4-64.1-166.6-44.8c0-5.7-3-10.3-6.8-10.3c-45.7,0-82.7,39.7-82.7,88.7c-16.8-15-29.5,14.6-5.6,17.1
			c-23.9,8.4-41.4,128.7-11.2,158.2c16.8-26.3-6.9-66.7,12.7-73.8c8.9,0,19-12.5,19-21.4c-16.1,0-27.1-13-17.6-22.7
			c8.5,17.7,26.3,16.3,33.9,2.8c-21-13.7-13.4-35.1-13.4-35.1c7.1,13.1,67.4,35.1,145.1,13.8c-6.1-16-25-21.3-25-21.3
			c6.3,0,71.2,27,125.7,14.7c1.4,4.9,2.3,8.6,1.9,9c0.5,7.5-1.1,19.5-14.6,28.3c7.6,13.6,25.5,15,33.9-2.8
			c9.5,9.8,13,51.3-10.1,46.1c0,8.9,8.4,21.8,17.3,21.8c19.6,7.1-4.7,28.8-4.7,28.8C588.6,440.2,567.9,324.9,549.4,287.6z"/>
		<path fill="#FCC1AC" d="M464.2,482.7c-11.5-17.2-39.6-20.7-61.4-8.7h-0.4c-21.8-12-49.9-8.4-61.4,8.7c-6,12.8-16,63-13,83.6
			l0.3-0.3c0,0,78.6,63.1,148.8-0.1l0,0.5C480.2,545.7,470.3,495.5,464.2,482.7z M442.4,576c-17.9,0-33.3-13.9-33.3-34.7l0,0.5
			c0-4.9-14.2-5.2-13.9-0.4c0,20.8-14.5,37.6-32.3,37.6c-12.7-35.1-18.5-65-14.2-83.2c11.5-17.2,32.1-17.7,53.8-9.7h0.4
			c21.8-8,42.3-7.5,53.8,9.7C460.9,513.9,455.1,540.9,442.4,576z"/>
		<path fill="#42210B" d="M468,481.6c-12.2-18.2-42-23.6-65.1-7.6h-0.4c-23.1-16-52.9-10.7-65.1,7.6c-6.4,13.6-17,66-13.8,87.9
			l0.3-0.8c0,0,83.4,66.7,157.9-0.3l0,1.3C485,547.7,474.4,495.1,468,481.6z M444.9,578.8c-19,0-35.3-14.8-35.3-36.8l0,0.5
			c0-5.2-15.1-5.5-14.8-0.5c0,22.1-15.4,39.9-34.3,39.9c-13.5-37.2-19.6-67.6-15.1-87c12.2-18.2,34-20.9,57.1-8.9h0.4
			c23.1-12,44.9-9.3,57.1,8.9C464.5,514.3,458.3,541.5,444.9,578.8z"/>
		<g>
			<path fill="#F9B5A2" d="M454.3,488.9c-41.3,7.5-46.8,6.9-106.4,9.7C363.8,550.9,436.9,550.7,454.3,488.9z"/>
			<g>
				<defs>
					<path id="SVGID_3_" d="M454.3,488.9c-41.9,2.7-47.1,3.1-106.4,9.7C367.1,549.7,433.8,545.4,454.3,488.9z"/>
				</defs>
				<clipPath id="SVGID_1_">
					<use xlink:href="#SVGID_3_"  overflow="visible"/>
				</clipPath>
				<path clip-path="url(#SVGID_1_)" fill="#BC8075" d="M482.2,480.9c-60.5,3.9-68.1,4.4-153.8,14
					C356.2,568.8,452.6,562.5,482.2,480.9z"/>
				<path clip-path="url(#SVGID_1_)" fill="#FFFFFF" d="M424.7,466l0.4,6.1l-13.1,0.7l0.8,10.8l-12.1,1l-12.1,0.6l-0.5-8.4l-13.1,1
					l-0.4-6.1l-19.9,1.6l2.3,22.9c0.3,5.3,4.9,9.2,10.1,8.9c1.4-0.1,2.7-0.5,3.9-1.1c1.4,3.9,5.3,6.5,9.6,6.2c1-0.1,2-0.3,2.9-0.7
					c1,4.9,8.7,4.3,13.7,3.9c8.1-0.5,4.5-4.3,4.8-7.6c0.7,3.2-2.1,7.5,4.5,7c5.3-0.3,14.7-1.2,14.4-6.5l-0.1-1.6
					c0.9,0.2,1.9,0.3,2.9,0.3c4.3-0.3,7.8-3.4,8.7-7.4c1.2,0.5,2.6,0.7,4,0.6c5.2-0.3,9.2-4.9,8.9-10.1l-0.7-23L424.7,466z"/>
				<path clip-path="url(#SVGID_1_)" fill="#FFA4C2" d="M433.1,488.6c-2.1,0.1-3.6,2.7-3.4,5.2c-10.1-5.5-11.7,0.2-11.1,4.5l0,0
					c-3.5-10.8-17.6-3.5-17.2,2.4l0,0c-1.5-10.9-19.1-6.6-17.6,2.3c-0.2-3.7-5-9.2-11.4-6c-0.2-2.6-1.6-4.6-4.6-4.4l0,0.4
					c-0.2-2.9,64.8-4.2,64.8-4.2"/>
				<path clip-path="url(#SVGID_1_)" fill="#FF94B3" d="M433.2,533.4c0.9,14.3-12.4,26.7-29.8,27.9c-17.4,1.1-32.2-9.5-33.2-23.8
					c-0.9-14.3,13.5-10.5,30.4-14.6C417.6,518.8,432.3,519.2,433.2,533.4z"/>
			</g>
		</g>
		<path opacity="0.4" fill="#4C280F" d="M526.5,272.8c-0.7-8.8-54.9-36.2-68.6-34.9c2.6-0.2,13.6-13.6,13.3-17.3
			c-45.9-37.5-129.1-26.5-144.8-12.6c-0.3-3.7-2.1-10.1-4.4-9.9c-16.9,1.6-31.7,15.2-40.2,29.4c-0.3,0.7-18.8,42.9,7,53.4
			c10.6,7.4,56.2,28.1,100.1,11.5c-4.8-9.9-9.3-20.9-9.3-20.9C393.1,276.1,504.2,301.3,526.5,272.8z"/>
		<g>
			<path fill="#42210B" d="M479.2,377.3c8.8,10.6,31.3-1.6,54.1,18.9C523.6,376.1,499.4,367.6,479.2,377.3z"/>
			<path fill="#42210B" d="M311.5,377.3c-8.8,10.6-31.3-1.6-54.1,18.9C267.1,376,291.3,367.6,311.5,377.3z"/>
		</g>
		<g>
			<path fill="#231206" d="M299.2,416.6c0,7.9-6.2,14.3-13.8,14.3c-7.6,0-13.8-6.4-13.8-14.3c0-7.9,6.2-14.3,13.8-14.3
				C293,402.4,299.2,408.7,299.2,416.6z"/>
			<path fill="#231206" d="M522.2,416.6c0,7.9-6.2,14.3-13.8,14.3c-7.6,0-13.8-6.4-13.8-14.3c0-7.9,6.2-14.3,13.8-14.3
				C516.1,402.4,522.2,408.7,522.2,416.6z"/>
		</g>
	</g>
</g>
<g>
	<path fill="#333333" d="M233,184v109h0.3c0.6,20,83.3,38.8,166.2,38.8c82.9,0,165.6-18.8,166.2-38.8H565V184H233z"/>
	<polygon fill="#4D4D4D" points="677,175 377.1,119.3 117,191.7 117,201 421.9,271.8 677,184.3 	"/>
	<polygon fill="#333333" points="117.6,191.7 377.6,119.3 677.4,175 422.3,262.5 	"/>
	<polygon fill="#0289CB" points="217,214.9 205.8,212.3 379.6,183.6 387,189.3 	"/>
	<ellipse fill="#4D4D4D" cx="397.5" cy="187.2" rx="42.9" ry="11.9"/>
	<polygon fill="#10BEFD" points="216.7,298 206.1,298 206,212.2 217,214.7 	"/>
	<path fill="#10BEFD" d="M234.1,368.9c0,2.2-1.8,4.1-3.9,4.1h-36.8c-2.2,0-3.9-1.9-3.9-4.1l13.2-82.6c0-2.2,1.8-4.3,3.9-4.3H217
		c2.2,0,3.9,2.1,3.9,4.3L234.1,368.9z"/>
	<path fill="#0289CB" d="M219,277.4c0,0.9-0.7,1.6-1.6,1.6h-11.7c-0.9,0-1.6-0.7-1.6-1.6v-0.7c0-0.9,0.7-1.6,1.6-1.6h11.7
		c0.9,0,1.6,0.7,1.6,1.6V277.4z"/>
	<path fill="#0289CB" d="M219,280.4c0,0.9-0.7,1.6-1.6,1.6h-11.7c-0.9,0-1.6-0.7-1.6-1.6v-0.7c0-0.9,0.7-1.6,1.6-1.6h11.7
		c0.9,0,1.6,0.7,1.6,1.6V280.4z"/>
	<path fill="#0289CB" d="M219,273.4c0,0.9-0.7,1.6-1.6,1.6h-11.7c-0.9,0-1.6-0.7-1.6-1.6v-0.7c0-0.9,0.7-1.6,1.6-1.6h11.7
		c0.9,0,1.6,0.7,1.6,1.6V273.4z"/>
</g>
</svg>
